<?xml version="1.0" encoding="utf-8"?>
<svg xmlns="http://www.w3.org/2000/svg" version="1.1" width="1000" height="800">

<line x1="0" y1="0" x2="1000" y2="0" stroke="darkgrey" />
<text x="5" y="-5" fill="darkgrey" >0</text>
<line x1="0" y1="100" x2="1000" y2="100" stroke="darkgrey" />
<text x="5" y="95" fill="darkgrey" >1</text>
<line x1="0" y1="200" x2="1000" y2="200" stroke="darkgrey" />
<text x="5" y="195" fill="darkgrey" >2</text>
<line x1="0" y1="300" x2="1000" y2="300" stroke="darkgrey" />
<text x="5" y="295" fill="darkgrey" >3</text>
<line x1="0" y1="400" x2="1000" y2="400" stroke="darkgrey" />
<text x="5" y="395" fill="darkgrey" >4</text>
<line x1="0" y1="500" x2="1000" y2="500" stroke="darkgrey" />
<text x="5" y="495" fill="darkgrey" >5</text>
<line x1="0" y1="600" x2="1000" y2="600" stroke="darkgrey" />
<text x="5" y="595" fill="darkgrey" >6</text>
<line x1="0" y1="700" x2="1000" y2="700" stroke="darkgrey" />
<text x="5" y="695" fill="darkgrey" >7</text>
<line x1="0" y1="800" x2="1000" y2="800" stroke="darkgrey" />
<text x="5" y="795" fill="darkgrey" >8</text>
<line x1="0" y1="0" x2="0" y2="800" stroke="darkgrey" />
<text x="5" y="15" fill="darkgrey" >0</text>
<line x1="100" y1="0" x2="100" y2="800" stroke="darkgrey" />
<text x="105" y="15" fill="darkgrey" >1</text>
<line x1="200" y1="0" x2="200" y2="800" stroke="darkgrey" />
<text x="205" y="15" fill="darkgrey" >2</text>
<line x1="300" y1="0" x2="300" y2="800" stroke="darkgrey" />
<text x="305" y="15" fill="darkgrey" >3</text>
<line x1="400" y1="0" x2="400" y2="800" stroke="darkgrey" />
<text x="405" y="15" fill="darkgrey" >4</text>
<line x1="500" y1="0" x2="500" y2="800" stroke="darkgrey" />
<text x="505" y="15" fill="darkgrey" >5</text>
<line x1="600" y1="0" x2="600" y2="800" stroke="darkgrey" />
<text x="605" y="15" fill="darkgrey" >6</text>
<line x1="700" y1="0" x2="700" y2="800" stroke="darkgrey" />
<text x="705" y="15" fill="darkgrey" >7</text>
<line x1="800" y1="0" x2="800" y2="800" stroke="darkgrey" />
<text x="805" y="15" fill="darkgrey" >8</text>
<line x1="900" y1="0" x2="900" y2="800" stroke="darkgrey" />
<text x="905" y="15" fill="darkgrey" >9</text>
<line x1="1000" y1="0" x2="1000" y2="800" stroke="darkgrey" />
<text x="1005" y="15" fill="darkgrey" >10</text>
<polygon points=" 820,35 820,330 950,330 950,35" style="fill:white;stroke:black;stroke-width:2" />
<polygon points=" 820,345 820,567 950,567 950,345" style="fill:white;stroke:black;stroke-width:2" />
<text x="862" y="371" fill="black" >Indices</text>
<text x="845" y="390" fill="black" >de Centralite</text>
<text x="839.5" y="552" fill="black" >N</text>
<text x="847" y="61" fill="black" >Sommets en</text>
<text x="847" y="80" fill="black" >Pourcentage</text>
<circle cx="850" cy="100" r="8" fill="cyan" />
<circle cx="850" cy="130" r="8" fill="lightgreen" />
<circle cx="850" cy="160" r="8" fill="green" />
<circle cx="850" cy="190" r="8" fill="yellow" />
<circle cx="850" cy="220" r="8" fill="orange" />
<circle cx="850" cy="250" r="8" fill="red" />
<text x="878" y="105" fill="black" >0 - 25</text>
<text x="878" y="135" fill="black" >25 - 37,5</text>
<text x="878" y="165" fill="black" >37,5 - 50</text>
<text x="878" y="195" fill="black" >50 - 62,5</text>
<text x="878" y="225" fill="black" >62,5 - 75</text>
<text x="878" y="255" fill="black" >75 - 100</text>
<polygon points=" 840,90 840,260 860,260 860,90" style="fill:url(#redrect);stroke:black;stroke-width:2" />
<polygon points=" 840,90 840,130 860,130 860,90" style="fill:url(#bluerect)" />
<polygon points=" 840,129 840,148 860,148 860,129" style="fill:url(#greenrect)" />
<polygon points=" 840,190 840,214 860,214 860,190" style="fill:yellow" />
<polygon points=" 840,147 840,191 860,191 860,147" style="fill:url(#yellowrect)" />
<polygon points=" 840,213 840,260 860,260 860,213" style="fill:url(#redrect)" />
<polygon points=" 840,90 840,260 860,260 860,90" style="fill:url(#testrect)" />
<polygon points=" 835,275 835,315 935,315 935,275" style="fill:white;stroke:black;stroke-width:2" />
<text x="862" y="292" fill="black" >Vecteur</text>
<text x="865" y="307" fill="black" >Propre</text>
<text x="875" y="426" fill="black" >Degre</text>
<text x="871" y="452" fill="black" >Vecteur</text>
<text x="874" y="467" fill="black" >Propre</text>
<text x="867" y="492" fill="black" >Proximite</text>
<text x="856" y="525" fill="black" >Intermediarite</text>
<circle cx="200" cy="100" r="5" fill="green" />
<text x="195" y="90" fill="black" >A</text>
<text x="185" y="117" fill="orange" >0.25</text>
<circle cx="845" cy="421" r="4" fill="orange" />
<circle cx="845" cy="421" r="7" fill="none" stroke="orange" stroke-width="2" />
<text x="184" y="133" fill="green" >0.224</text>
<circle cx="845" cy="454" r="7" fill="none" stroke="green" stroke-width="2" />
<circle cx="845" cy="454" r="4" fill="green" />
<text x="184" y="151" fill="blue" >0.571</text>
<circle cx="845" cy="487" r="4" fill="blue" />
<circle cx="845" cy="487" r="7" fill="none" stroke="blue" stroke-width="2" />
<text x="184" y="169" fill="darkred" >0</text>
<circle cx="845" cy="520" r="4" fill="darkred" />
<circle cx="845" cy="520" r="7" fill="none" stroke="darkred" stroke-width="2" />
<line x1="200" y1="100" x2="200" y2="200" stroke="black" />
<text x="196" y="142" fill="black" >1</text>
<polygon points=" 820,35 820,330 950,330 950,35" style="fill:white;stroke:black;stroke-width:2" />
<polygon points=" 820,345 820,567 950,567 950,345" style="fill:white;stroke:black;stroke-width:2" />
<text x="862" y="371" fill="black" >Indices</text>
<text x="845" y="390" fill="black" >de Centralite</text>
<text x="839.5" y="552" fill="black" >N</text>
<text x="847" y="61" fill="black" >Sommets en</text>
<text x="847" y="80" fill="black" >Pourcentage</text>
<circle cx="850" cy="100" r="8" fill="cyan" />
<circle cx="850" cy="130" r="8" fill="lightgreen" />
<circle cx="850" cy="160" r="8" fill="green" />
<circle cx="850" cy="190" r="8" fill="yellow" />
<circle cx="850" cy="220" r="8" fill="orange" />
<circle cx="850" cy="250" r="8" fill="red" />
<text x="878" y="105" fill="black" >0 - 25</text>
<text x="878" y="135" fill="black" >25 - 37,5</text>
<text x="878" y="165" fill="black" >37,5 - 50</text>
<text x="878" y="195" fill="black" >50 - 62,5</text>
<text x="878" y="225" fill="black" >62,5 - 75</text>
<text x="878" y="255" fill="black" >75 - 100</text>
<polygon points=" 840,90 840,260 860,260 860,90" style="fill:url(#redrect);stroke:black;stroke-width:2" />
<polygon points=" 840,90 840,130 860,130 860,90" style="fill:url(#bluerect)" />
<polygon points=" 840,129 840,148 860,148 860,129" style="fill:url(#greenrect)" />
<polygon points=" 840,190 840,214 860,214 860,190" style="fill:yellow" />
<polygon points=" 840,147 840,191 860,191 860,147" style="fill:url(#yellowrect)" />
<polygon points=" 840,213 840,260 860,260 860,213" style="fill:url(#redrect)" />
<polygon points=" 840,90 840,260 860,260 860,90" style="fill:url(#testrect)" />
<polygon points=" 835,275 835,315 935,315 935,275" style="fill:white;stroke:black;stroke-width:2" />
<text x="862" y="292" fill="black" >Vecteur</text>
<text x="865" y="307" fill="black" >Propre</text>
<text x="875" y="426" fill="black" >Degre</text>
<text x="871" y="452" fill="black" >Vecteur</text>
<text x="874" y="467" fill="black" >Propre</text>
<text x="867" y="492" fill="black" >Proximite</text>
<text x="856" y="525" fill="black" >Intermediarite</text>
<circle cx="100" cy="200" r="5" fill="green" />
<text x="95" y="190" fill="black" >B</text>
<text x="85" y="217" fill="orange" >0.25</text>
<circle cx="845" cy="421" r="4" fill="orange" />
<circle cx="845" cy="421" r="7" fill="none" stroke="orange" stroke-width="2" />
<text x="84" y="233" fill="green" >0.224</text>
<circle cx="845" cy="454" r="7" fill="none" stroke="green" stroke-width="2" />
<circle cx="845" cy="454" r="4" fill="green" />
<text x="84" y="251" fill="blue" >0.571</text>
<circle cx="845" cy="487" r="4" fill="blue" />
<circle cx="845" cy="487" r="7" fill="none" stroke="blue" stroke-width="2" />
<text x="84" y="269" fill="darkred" >0</text>
<circle cx="845" cy="520" r="4" fill="darkred" />
<circle cx="845" cy="520" r="7" fill="none" stroke="darkred" stroke-width="2" />
<line x1="100" y1="200" x2="200" y2="200" stroke="black" />
<text x="146" y="192" fill="black" >1</text>
<polygon points=" 820,35 820,330 950,330 950,35" style="fill:white;stroke:black;stroke-width:2" />
<polygon points=" 820,345 820,567 950,567 950,345" style="fill:white;stroke:black;stroke-width:2" />
<text x="862" y="371" fill="black" >Indices</text>
<text x="845" y="390" fill="black" >de Centralite</text>
<text x="839.5" y="552" fill="black" >N</text>
<text x="847" y="61" fill="black" >Sommets en</text>
<text x="847" y="80" fill="black" >Pourcentage</text>
<circle cx="850" cy="100" r="8" fill="cyan" />
<circle cx="850" cy="130" r="8" fill="lightgreen" />
<circle cx="850" cy="160" r="8" fill="green" />
<circle cx="850" cy="190" r="8" fill="yellow" />
<circle cx="850" cy="220" r="8" fill="orange" />
<circle cx="850" cy="250" r="8" fill="red" />
<text x="878" y="105" fill="black" >0 - 25</text>
<text x="878" y="135" fill="black" >25 - 37,5</text>
<text x="878" y="165" fill="black" >37,5 - 50</text>
<text x="878" y="195" fill="black" >50 - 62,5</text>
<text x="878" y="225" fill="black" >62,5 - 75</text>
<text x="878" y="255" fill="black" >75 - 100</text>
<polygon points=" 840,90 840,260 860,260 860,90" style="fill:url(#redrect);stroke:black;stroke-width:2" />
<polygon points=" 840,90 840,130 860,130 860,90" style="fill:url(#bluerect)" />
<polygon points=" 840,129 840,148 860,148 860,129" style="fill:url(#greenrect)" />
<polygon points=" 840,190 840,214 860,214 860,190" style="fill:yellow" />
<polygon points=" 840,147 840,191 860,191 860,147" style="fill:url(#yellowrect)" />
<polygon points=" 840,213 840,260 860,260 860,213" style="fill:url(#redrect)" />
<polygon points=" 840,90 840,260 860,260 860,90" style="fill:url(#testrect)" />
<polygon points=" 835,275 835,315 935,315 935,275" style="fill:white;stroke:black;stroke-width:2" />
<text x="862" y="292" fill="black" >Vecteur</text>
<text x="865" y="307" fill="black" >Propre</text>
<text x="875" y="426" fill="black" >Degre</text>
<text x="871" y="452" fill="black" >Vecteur</text>
<text x="874" y="467" fill="black" >Propre</text>
<text x="867" y="492" fill="black" >Proximite</text>
<text x="856" y="525" fill="black" >Intermediarite</text>
<circle cx="200" cy="200" r="5" fill="red" />
<text x="195" y="190" fill="black" >C</text>
<text x="185" y="217" fill="orange" >1</text>
<circle cx="845" cy="421" r="4" fill="orange" />
<circle cx="845" cy="421" r="7" fill="none" stroke="orange" stroke-width="2" />
<text x="184" y="233" fill="green" >0.894</text>
<circle cx="845" cy="454" r="7" fill="none" stroke="green" stroke-width="2" />
<circle cx="845" cy="454" r="4" fill="green" />
<text x="184" y="251" fill="blue" >1</text>
<circle cx="845" cy="487" r="4" fill="blue" />
<circle cx="845" cy="487" r="7" fill="none" stroke="blue" stroke-width="2" />
<text x="184" y="269" fill="darkred" >1</text>
<circle cx="845" cy="520" r="4" fill="darkred" />
<circle cx="845" cy="520" r="7" fill="none" stroke="darkred" stroke-width="2" />
<line x1="200" y1="200" x2="200" y2="100" stroke="black" />
<line x1="200" y1="200" x2="100" y2="200" stroke="black" />
<line x1="200" y1="200" x2="300" y2="200" stroke="black" />
<text x="246" y="192" fill="black" >1</text>
<line x1="200" y1="200" x2="200" y2="300" stroke="black" />
<text x="196" y="242" fill="black" >1</text>
<polygon points=" 820,35 820,330 950,330 950,35" style="fill:white;stroke:black;stroke-width:2" />
<polygon points=" 820,345 820,567 950,567 950,345" style="fill:white;stroke:black;stroke-width:2" />
<text x="862" y="371" fill="black" >Indices</text>
<text x="845" y="390" fill="black" >de Centralite</text>
<text x="839.5" y="552" fill="black" >N</text>
<text x="847" y="61" fill="black" >Sommets en</text>
<text x="847" y="80" fill="black" >Pourcentage</text>
<circle cx="850" cy="100" r="8" fill="cyan" />
<circle cx="850" cy="130" r="8" fill="lightgreen" />
<circle cx="850" cy="160" r="8" fill="green" />
<circle cx="850" cy="190" r="8" fill="yellow" />
<circle cx="850" cy="220" r="8" fill="orange" />
<circle cx="850" cy="250" r="8" fill="red" />
<text x="878" y="105" fill="black" >0 - 25</text>
<text x="878" y="135" fill="black" >25 - 37,5</text>
<text x="878" y="165" fill="black" >37,5 - 50</text>
<text x="878" y="195" fill="black" >50 - 62,5</text>
<text x="878" y="225" fill="black" >62,5 - 75</text>
<text x="878" y="255" fill="black" >75 - 100</text>
<polygon points=" 840,90 840,260 860,260 860,90" style="fill:url(#redrect);stroke:black;stroke-width:2" />
<polygon points=" 840,90 840,130 860,130 860,90" style="fill:url(#bluerect)" />
<polygon points=" 840,129 840,148 860,148 860,129" style="fill:url(#greenrect)" />
<polygon points=" 840,190 840,214 860,214 860,190" style="fill:yellow" />
<polygon points=" 840,147 840,191 860,191 860,147" style="fill:url(#yellowrect)" />
<polygon points=" 840,213 840,260 860,260 860,213" style="fill:url(#redrect)" />
<polygon points=" 840,90 840,260 860,260 860,90" style="fill:url(#testrect)" />
<polygon points=" 835,275 835,315 935,315 935,275" style="fill:white;stroke:black;stroke-width:2" />
<text x="862" y="292" fill="black" >Vecteur</text>
<text x="865" y="307" fill="black" >Propre</text>
<text x="875" y="426" fill="black" >Degre</text>
<text x="871" y="452" fill="black" >Vecteur</text>
<text x="874" y="467" fill="black" >Propre</text>
<text x="867" y="492" fill="black" >Proximite</text>
<text x="856" y="525" fill="black" >Intermediarite</text>
<circle cx="300" cy="200" r="5" fill="green" />
<text x="295" y="190" fill="black" >D</text>
<text x="285" y="217" fill="orange" >0.25</text>
<circle cx="845" cy="421" r="4" fill="orange" />
<circle cx="845" cy="421" r="7" fill="none" stroke="orange" stroke-width="2" />
<text x="284" y="233" fill="green" >0.224</text>
<circle cx="845" cy="454" r="7" fill="none" stroke="green" stroke-width="2" />
<circle cx="845" cy="454" r="4" fill="green" />
<text x="284" y="251" fill="blue" >0.571</text>
<circle cx="845" cy="487" r="4" fill="blue" />
<circle cx="845" cy="487" r="7" fill="none" stroke="blue" stroke-width="2" />
<text x="284" y="269" fill="darkred" >0</text>
<circle cx="845" cy="520" r="4" fill="darkred" />
<circle cx="845" cy="520" r="7" fill="none" stroke="darkred" stroke-width="2" />
<line x1="300" y1="200" x2="200" y2="200" stroke="black" />
<polygon points=" 820,35 820,330 950,330 950,35" style="fill:white;stroke:black;stroke-width:2" />
<polygon points=" 820,345 820,567 950,567 950,345" style="fill:white;stroke:black;stroke-width:2" />
<text x="862" y="371" fill="black" >Indices</text>
<text x="845" y="390" fill="black" >de Centralite</text>
<text x="839.5" y="552" fill="black" >N</text>
<text x="847" y="61" fill="black" >Sommets en</text>
<text x="847" y="80" fill="black" >Pourcentage</text>
<circle cx="850" cy="100" r="8" fill="cyan" />
<circle cx="850" cy="130" r="8" fill="lightgreen" />
<circle cx="850" cy="160" r="8" fill="green" />
<circle cx="850" cy="190" r="8" fill="yellow" />
<circle cx="850" cy="220" r="8" fill="orange" />
<circle cx="850" cy="250" r="8" fill="red" />
<text x="878" y="105" fill="black" >0 - 25</text>
<text x="878" y="135" fill="black" >25 - 37,5</text>
<text x="878" y="165" fill="black" >37,5 - 50</text>
<text x="878" y="195" fill="black" >50 - 62,5</text>
<text x="878" y="225" fill="black" >62,5 - 75</text>
<text x="878" y="255" fill="black" >75 - 100</text>
<polygon points=" 840,90 840,260 860,260 860,90" style="fill:url(#redrect);stroke:black;stroke-width:2" />
<polygon points=" 840,90 840,130 860,130 860,90" style="fill:url(#bluerect)" />
<polygon points=" 840,129 840,148 860,148 860,129" style="fill:url(#greenrect)" />
<polygon points=" 840,190 840,214 860,214 860,190" style="fill:yellow" />
<polygon points=" 840,147 840,191 860,191 860,147" style="fill:url(#yellowrect)" />
<polygon points=" 840,213 840,260 860,260 860,213" style="fill:url(#redrect)" />
<polygon points=" 840,90 840,260 860,260 860,90" style="fill:url(#testrect)" />
<polygon points=" 835,275 835,315 935,315 935,275" style="fill:white;stroke:black;stroke-width:2" />
<text x="862" y="292" fill="black" >Vecteur</text>
<text x="865" y="307" fill="black" >Propre</text>
<text x="875" y="426" fill="black" >Degre</text>
<text x="871" y="452" fill="black" >Vecteur</text>
<text x="874" y="467" fill="black" >Propre</text>
<text x="867" y="492" fill="black" >Proximite</text>
<text x="856" y="525" fill="black" >Intermediarite</text>
<circle cx="200" cy="300" r="5" fill="green" />
<text x="195" y="290" fill="black" >E</text>
<text x="185" y="317" fill="orange" >0.25</text>
<circle cx="845" cy="421" r="4" fill="orange" />
<circle cx="845" cy="421" r="7" fill="none" stroke="orange" stroke-width="2" />
<text x="184" y="333" fill="green" >0.224</text>
<circle cx="845" cy="454" r="7" fill="none" stroke="green" stroke-width="2" />
<circle cx="845" cy="454" r="4" fill="green" />
<text x="184" y="351" fill="blue" >0.571</text>
<circle cx="845" cy="487" r="4" fill="blue" />
<circle cx="845" cy="487" r="7" fill="none" stroke="blue" stroke-width="2" />
<text x="184" y="369" fill="darkred" >0</text>
<circle cx="845" cy="520" r="4" fill="darkred" />
<circle cx="845" cy="520" r="7" fill="none" stroke="darkred" stroke-width="2" />
<line x1="200" y1="300" x2="200" y2="200" stroke="black" />
  

<defs>
    <radialGradient id="redball" cx="30%" cy="30%" r="100%" fx="30%" fy="30%">
      <stop offset="0%" style="stop-color:rgb(255,250,250)" />
      <stop offset="3%" style="stop-color:rgb(255,250,250)" />
      <stop offset="7%" style="stop-color:rgb(255,160,160)" />
      <stop offset="70%" style="stop-color:rgb(255,0,0)" />
      <stop offset="100%" style="stop-color:rgb(255,0,0)" />
    </radialGradient>
    <radialGradient id="greenball" cx="30%" cy="30%" r="100%" fx="30%" fy="30%">
      <stop offset="0%" style="stop-color:rgb(250,255,250)" />
      <stop offset="3%" style="stop-color:rgb(250,255,250)" />
      <stop offset="7%" style="stop-color:rgb(160,255,160)" />
      <stop offset="70%" style="stop-color:rgb(0,255,0)" />
      <stop offset="100%" style="stop-color:rgb(0,255,0)" />
    </radialGradient>
    <radialGradient id="blueball" cx="30%" cy="30%" r="100%" fx="30%" fy="30%">
      <stop offset="0%" style="stop-color:rgb(250,250,255)" />
      <stop offset="3%" style="stop-color:rgb(250,250,255)" />
      <stop offset="7%" style="stop-color:rgb(160,160,255)" />
      <stop offset="70%" style="stop-color:rgb(0,0,255)" />
      <stop offset="100%" style="stop-color:rgb(0,255,0)" />
    </radialGradient>
    <radialGradient id="yellowball" cx="30%" cy="30%" r="100%" fx="30%" fy="30%">
      <stop offset="0%" style="stop-color:rgb(255,255,250)" />
      <stop offset="3%" style="stop-color:rgb(255,255,250)" />
      <stop offset="7%" style="stop-color:rgb(255,255,160)" />
      <stop offset="70%" style="stop-color:rgb(255,255,0)" />
      <stop offset="100%" style="stop-color:rgb(255,255,0)" />
    </radialGradient>
    <radialGradient id="greyball" cx="30%" cy="30%" r="100%" fx="30%" fy="30%">
      <stop offset="0%" style="stop-color:rgb(250,250,250)" />
      <stop offset="3%" style="stop-color:rgb(250,250,250)" />
      <stop offset="7%" style="stop-color:rgb(160,160,160)" />
      <stop offset="70%" style="stop-color:rgb(100,100,100)" />
      <stop offset="100%" style="stop-color:rgb(100,100,100)" />
    </radialGradient>
  </defs>
  

<defs>
    <linearGradient id="rvbrect" x1="0%" y1="0%" x2="0%" y2="100%">
      <stop offset="0%" style="stop-color:rgb(0,255,0)" />
      <stop offset="50%" style="stop-color:rgb(0,0,255)" />
      <stop offset="100%" style="stop-color:rgb(255,0,0)" />
    </linearGradient>
    <linearGradient id="testrect" x1="0%" y1="0%" x2="0%" y2="100%">
      <stop offset="0%" style="stop-color:cyan" />
      <stop offset="20%" style="stop-color:lightgreen" />
      <stop offset="40%" style="stop-color:green" />
      <stop offset="60%" style="stop-color:yellow" />
      <stop offset="80%" style="stop-color:orange" />
      <stop offset="100%" style="stop-color:red" />
    </linearGradient>
    <linearGradient id="bluerect" x1="0%" y1="0%" x2="0%" y2="100%">
      <stop offset="0%" style="stop-color:rgb(0,255,255)" />
      <stop offset="100%" style="stop-color:rgb(0,255,0)" />
    </linearGradient>
    <linearGradient id="greenrect" x1="0%" y1="0%" x2="0%" y2="100%">
      <stop offset="0%" style="stop-color:rgb(0,255,0)" />
      <stop offset="100%" style="stop-color:green" />
    </linearGradient>
    <linearGradient id="yellowrect" x1="0%" y1="0%" x2="0%" y2="100%">
      <stop offset="0%" style="stop-color:green" />
      <stop offset="100%" style="stop-color:rgb(255,255,0)" />
    </linearGradient>
    <linearGradient id="redrect" x1="0%" y1="0%" x2="0%" y2="100%">
      <stop offset="0%" style="stop-color:rgb(255,250,0)" />
      <stop offset="100%" style="stop-color:rgb(255,0,0)" />
    </linearGradient>
  </defs>


</svg>
