<?xml version="1.0" encoding="utf-8"?>
<svg xmlns="http://www.w3.org/2000/svg" version="1.1" width="1000" height="800">

<line x1="0" y1="0" x2="1000" y2="0" stroke="darkgrey" />
<text x="5" y="-5" fill="darkgrey" >0</text>
<line x1="0" y1="100" x2="1000" y2="100" stroke="darkgrey" />
<text x="5" y="95" fill="darkgrey" >1</text>
<line x1="0" y1="200" x2="1000" y2="200" stroke="darkgrey" />
<text x="5" y="195" fill="darkgrey" >2</text>
<line x1="0" y1="300" x2="1000" y2="300" stroke="darkgrey" />
<text x="5" y="295" fill="darkgrey" >3</text>
<line x1="0" y1="400" x2="1000" y2="400" stroke="darkgrey" />
<text x="5" y="395" fill="darkgrey" >4</text>
<line x1="0" y1="500" x2="1000" y2="500" stroke="darkgrey" />
<text x="5" y="495" fill="darkgrey" >5</text>
<line x1="0" y1="600" x2="1000" y2="600" stroke="darkgrey" />
<text x="5" y="595" fill="darkgrey" >6</text>
<line x1="0" y1="700" x2="1000" y2="700" stroke="darkgrey" />
<text x="5" y="695" fill="darkgrey" >7</text>
<line x1="0" y1="800" x2="1000" y2="800" stroke="darkgrey" />
<text x="5" y="795" fill="darkgrey" >8</text>
<line x1="0" y1="0" x2="0" y2="800" stroke="darkgrey" />
<text x="5" y="15" fill="darkgrey" >0</text>
<line x1="100" y1="0" x2="100" y2="800" stroke="darkgrey" />
<text x="105" y="15" fill="darkgrey" >1</text>
<line x1="200" y1="0" x2="200" y2="800" stroke="darkgrey" />
<text x="205" y="15" fill="darkgrey" >2</text>
<line x1="300" y1="0" x2="300" y2="800" stroke="darkgrey" />
<text x="305" y="15" fill="darkgrey" >3</text>
<line x1="400" y1="0" x2="400" y2="800" stroke="darkgrey" />
<text x="405" y="15" fill="darkgrey" >4</text>
<line x1="500" y1="0" x2="500" y2="800" stroke="darkgrey" />
<text x="505" y="15" fill="darkgrey" >5</text>
<line x1="600" y1="0" x2="600" y2="800" stroke="darkgrey" />
<text x="605" y="15" fill="darkgrey" >6</text>
<line x1="700" y1="0" x2="700" y2="800" stroke="darkgrey" />
<text x="705" y="15" fill="darkgrey" >7</text>
<line x1="800" y1="0" x2="800" y2="800" stroke="darkgrey" />
<text x="805" y="15" fill="darkgrey" >8</text>
<line x1="900" y1="0" x2="900" y2="800" stroke="darkgrey" />
<text x="905" y="15" fill="darkgrey" >9</text>
<line x1="1000" y1="0" x2="1000" y2="800" stroke="darkgrey" />
<text x="1005" y="15" fill="darkgrey" >10</text>
<circle cx="200" cy="100" r="3" fill="red" />
<text x="195" y="90" fill="black" >A</text>
<text x="186" y="116" fill="yellow" >1</text>
<text x="184" y="118" fill="yellow" >1</text>
<text x="185" y="117" fill="black" >1</text>
<line x1="30" y1="31" x2="50" y2="31" stroke="yellow" />
<line x1="30" y1="29" x2="50" y2="29" stroke="yellow" />
<line x1="30" y1="30" x2="50" y2="30" stroke="black" />
<text x="66" y="36" fill="yellow" >Indice de centralite par Degre</text>
<text x="64" y="34" fill="yellow" >Indice de centralite par Degre</text>
<text x="65" y="35" fill="black" >Indice de centralite par Degre</text>
<text x="184" y="133" fill="green" >0.224</text>
<line x1="30" y1="50" x2="50" y2="50" stroke="green" />
<text x="65" y="55" fill="green" >Indice de centralite par Vecteur Propre</text>
<text x="184" y="151" fill="blue" >0.143</text>
<line x1="565" y1="30" x2="585" y2="30" stroke="blue" />
<text x="325" y="35" fill="blue" >Indice de centralite de Proximite</text>
<text x="184" y="169" fill="red" >0</text>
<line x1="565" y1="50" x2="585" y2="50" stroke="red" />
<text x="325" y="55" fill="red" >Indice de centralite d'Intermediarite</text>
<line x1="200" y1="100" x2="200" y2="200" stroke="black" />
<text x="196" y="142" fill="black" >1</text>
<circle cx="100" cy="200" r="3" fill="red" />
<text x="95" y="190" fill="black" >B</text>
<text x="86" y="216" fill="yellow" >1</text>
<text x="84" y="218" fill="yellow" >1</text>
<text x="85" y="217" fill="black" >1</text>
<line x1="30" y1="31" x2="50" y2="31" stroke="yellow" />
<line x1="30" y1="29" x2="50" y2="29" stroke="yellow" />
<line x1="30" y1="30" x2="50" y2="30" stroke="black" />
<text x="66" y="36" fill="yellow" >Indice de centralite par Degre</text>
<text x="64" y="34" fill="yellow" >Indice de centralite par Degre</text>
<text x="65" y="35" fill="black" >Indice de centralite par Degre</text>
<text x="84" y="233" fill="green" >0.224</text>
<line x1="30" y1="50" x2="50" y2="50" stroke="green" />
<text x="65" y="55" fill="green" >Indice de centralite par Vecteur Propre</text>
<text x="84" y="251" fill="blue" >0.143</text>
<line x1="565" y1="30" x2="585" y2="30" stroke="blue" />
<text x="325" y="35" fill="blue" >Indice de centralite de Proximite</text>
<text x="84" y="269" fill="red" >0</text>
<line x1="565" y1="50" x2="585" y2="50" stroke="red" />
<text x="325" y="55" fill="red" >Indice de centralite d'Intermediarite</text>
<line x1="100" y1="200" x2="200" y2="200" stroke="black" />
<text x="146" y="192" fill="black" >1</text>
<circle cx="200" cy="200" r="3" fill="red" />
<text x="195" y="190" fill="black" >C</text>
<text x="186" y="216" fill="yellow" >4</text>
<text x="184" y="218" fill="yellow" >4</text>
<text x="185" y="217" fill="black" >4</text>
<line x1="30" y1="31" x2="50" y2="31" stroke="yellow" />
<line x1="30" y1="29" x2="50" y2="29" stroke="yellow" />
<line x1="30" y1="30" x2="50" y2="30" stroke="black" />
<text x="66" y="36" fill="yellow" >Indice de centralite par Degre</text>
<text x="64" y="34" fill="yellow" >Indice de centralite par Degre</text>
<text x="65" y="35" fill="black" >Indice de centralite par Degre</text>
<text x="184" y="233" fill="green" >0.894</text>
<line x1="30" y1="50" x2="50" y2="50" stroke="green" />
<text x="65" y="55" fill="green" >Indice de centralite par Vecteur Propre</text>
<text x="184" y="251" fill="blue" >0.25</text>
<line x1="565" y1="30" x2="585" y2="30" stroke="blue" />
<text x="325" y="35" fill="blue" >Indice de centralite de Proximite</text>
<text x="184" y="269" fill="red" >6</text>
<line x1="565" y1="50" x2="585" y2="50" stroke="red" />
<text x="325" y="55" fill="red" >Indice de centralite d'Intermediarite</text>
<line x1="200" y1="200" x2="200" y2="100" stroke="black" />
<line x1="200" y1="200" x2="100" y2="200" stroke="black" />
<line x1="200" y1="200" x2="300" y2="200" stroke="black" />
<text x="246" y="192" fill="black" >1</text>
<line x1="200" y1="200" x2="200" y2="300" stroke="black" />
<text x="196" y="242" fill="black" >1</text>
<circle cx="300" cy="200" r="3" fill="red" />
<text x="295" y="190" fill="black" >D</text>
<text x="286" y="216" fill="yellow" >1</text>
<text x="284" y="218" fill="yellow" >1</text>
<text x="285" y="217" fill="black" >1</text>
<line x1="30" y1="31" x2="50" y2="31" stroke="yellow" />
<line x1="30" y1="29" x2="50" y2="29" stroke="yellow" />
<line x1="30" y1="30" x2="50" y2="30" stroke="black" />
<text x="66" y="36" fill="yellow" >Indice de centralite par Degre</text>
<text x="64" y="34" fill="yellow" >Indice de centralite par Degre</text>
<text x="65" y="35" fill="black" >Indice de centralite par Degre</text>
<text x="284" y="233" fill="green" >0.224</text>
<line x1="30" y1="50" x2="50" y2="50" stroke="green" />
<text x="65" y="55" fill="green" >Indice de centralite par Vecteur Propre</text>
<text x="284" y="251" fill="blue" >0.143</text>
<line x1="565" y1="30" x2="585" y2="30" stroke="blue" />
<text x="325" y="35" fill="blue" >Indice de centralite de Proximite</text>
<text x="284" y="269" fill="red" >0</text>
<line x1="565" y1="50" x2="585" y2="50" stroke="red" />
<text x="325" y="55" fill="red" >Indice de centralite d'Intermediarite</text>
<line x1="300" y1="200" x2="200" y2="200" stroke="black" />
<circle cx="200" cy="300" r="3" fill="red" />
<text x="195" y="290" fill="black" >E</text>
<text x="186" y="316" fill="yellow" >1</text>
<text x="184" y="318" fill="yellow" >1</text>
<text x="185" y="317" fill="black" >1</text>
<line x1="30" y1="31" x2="50" y2="31" stroke="yellow" />
<line x1="30" y1="29" x2="50" y2="29" stroke="yellow" />
<line x1="30" y1="30" x2="50" y2="30" stroke="black" />
<text x="66" y="36" fill="yellow" >Indice de centralite par Degre</text>
<text x="64" y="34" fill="yellow" >Indice de centralite par Degre</text>
<text x="65" y="35" fill="black" >Indice de centralite par Degre</text>
<text x="184" y="333" fill="green" >0.224</text>
<line x1="30" y1="50" x2="50" y2="50" stroke="green" />
<text x="65" y="55" fill="green" >Indice de centralite par Vecteur Propre</text>
<text x="184" y="351" fill="blue" >0.143</text>
<line x1="565" y1="30" x2="585" y2="30" stroke="blue" />
<text x="325" y="35" fill="blue" >Indice de centralite de Proximite</text>
<text x="184" y="369" fill="red" >0</text>
<line x1="565" y1="50" x2="585" y2="50" stroke="red" />
<text x="325" y="55" fill="red" >Indice de centralite d'Intermediarite</text>
<line x1="200" y1="300" x2="200" y2="200" stroke="black" />
  

<defs>
    <radialGradient id="redball" cx="30%" cy="30%" r="100%" fx="30%" fy="30%">
      <stop offset="0%" style="stop-color:rgb(255,250,250)" />
      <stop offset="3%" style="stop-color:rgb(255,250,250)" />
      <stop offset="7%" style="stop-color:rgb(255,160,160)" />
      <stop offset="70%" style="stop-color:rgb(255,0,0)" />
      <stop offset="100%" style="stop-color:rgb(255,0,0)" />
    </radialGradient>
    <radialGradient id="greenball" cx="30%" cy="30%" r="100%" fx="30%" fy="30%">
      <stop offset="0%" style="stop-color:rgb(250,255,250)" />
      <stop offset="3%" style="stop-color:rgb(250,255,250)" />
      <stop offset="7%" style="stop-color:rgb(160,255,160)" />
      <stop offset="70%" style="stop-color:rgb(0,255,0)" />
      <stop offset="100%" style="stop-color:rgb(0,255,0)" />
    </radialGradient>
    <radialGradient id="blueball" cx="30%" cy="30%" r="100%" fx="30%" fy="30%">
      <stop offset="0%" style="stop-color:rgb(250,250,255)" />
      <stop offset="3%" style="stop-color:rgb(250,250,255)" />
      <stop offset="7%" style="stop-color:rgb(160,160,255)" />
      <stop offset="70%" style="stop-color:rgb(0,0,255)" />
      <stop offset="100%" style="stop-color:rgb(0,255,0)" />
    </radialGradient>
    <radialGradient id="yellowball" cx="30%" cy="30%" r="100%" fx="30%" fy="30%">
      <stop offset="0%" style="stop-color:rgb(255,255,250)" />
      <stop offset="3%" style="stop-color:rgb(255,255,250)" />
      <stop offset="7%" style="stop-color:rgb(255,255,160)" />
      <stop offset="70%" style="stop-color:rgb(255,255,0)" />
      <stop offset="100%" style="stop-color:rgb(255,255,0)" />
    </radialGradient>
    <radialGradient id="greyball" cx="30%" cy="30%" r="100%" fx="30%" fy="30%">
      <stop offset="0%" style="stop-color:rgb(250,250,250)" />
      <stop offset="3%" style="stop-color:rgb(250,250,250)" />
      <stop offset="7%" style="stop-color:rgb(160,160,160)" />
      <stop offset="70%" style="stop-color:rgb(100,100,100)" />
      <stop offset="100%" style="stop-color:rgb(100,100,100)" />
    </radialGradient>
  </defs>


</svg>
